# MagicaVoxel @ Ephtracy

# group
o 

# material
mtllib soul_4.mtl
usemtl palette

# normals
vn -1 0 0
vn 1 0 0
vn 0 -1 0
vn 0 1 0
vn 0 0 -1
vn 0 0 1

# texcoords
vt 0.423828 0.5
vt 0.587891 0.5
vt 0.591797 0.5
vt 0.958984 0.5

# verts
v -1 0.7 -0.1
v -1 0.8 -0.1
v -1 0.9 -0.1
v -1 0.7 0
v -1 0.8 0
v -1 0.9 0
v -0.9 0.6 -0.1
v -0.9 0.7 -0.1
v -0.9 0.6 0
v -0.9 0.7 0
v -0.8 0.5 -0.1
v -0.8 0.6 -0.1
v -0.8 0.9 -0.1
v -0.8 1 -0.1
v -0.8 0.5 0
v -0.8 0.6 0
v -0.8 0.9 0
v -0.8 1 0
v -0.7 0.4 -0.1
v -0.7 0.5 -0.1
v -0.7 0.4 0
v -0.7 0.5 0
v -0.6 0.3 -0.1
v -0.6 0.4 -0.1
v -0.6 1 -0.1
v -0.6 1.1 -0.1
v -0.6 0.3 0
v -0.6 0.4 0
v -0.6 1 0
v -0.6 1.1 0
v -0.5 1.1 -0.1
v -0.5 1.2 -0.1
v -0.5 1.1 0
v -0.5 1.2 0
v -0.3 1.2 -0.1
v -0.3 1.3 -0.1
v -0.3 1.4 -0.1
v -0.3 1.2 0
v -0.3 1.3 0
v -0.3 1.4 0
v -0.2 1.4 -0.1
v -0.2 1.5 -0.1
v -0.2 1.4 0
v -0.2 1.5 0
v 0.6 0.3 -0.1
v 0.6 0.4 -0.1
v 0.6 0.3 0
v 0.6 0.4 0
v 0.7 0.4 -0.1
v 0.7 0.5 -0.1
v 0.7 0.4 0
v 0.7 0.5 0
v 0.8 0.5 -0.1
v 0.8 0.6 -0.1
v 0.8 0.5 0
v 0.8 0.6 0
v 0.9 0.6 -0.1
v 0.9 0.7 -0.1
v 0.9 1.4 -0.1
v 0.9 1.5 -0.1
v 0.9 0.6 0
v 0.9 0.7 0
v 0.9 1.4 0
v 0.9 1.5 0
v 1 0.7 -0.1
v 1 1.3 -0.1
v 1 1.4 -0.1
v 1 0.7 0
v 1 1.3 0
v 1 1.4 0
v -0.6 0.3 -0.1
v -0.6 0.3 0
v 0.6 0.3 -0.1
v 0.6 0.3 0
v -0.7 0.4 -0.1
v -0.7 0.4 0
v -0.6 0.4 -0.1
v -0.6 0.4 0
v 0.6 0.4 -0.1
v 0.6 0.4 0
v 0.7 0.4 -0.1
v 0.7 0.4 0
v -0.8 0.5 -0.1
v -0.8 0.5 0
v -0.7 0.5 -0.1
v -0.7 0.5 0
v 0.7 0.5 -0.1
v 0.7 0.5 0
v 0.8 0.5 -0.1
v 0.8 0.5 0
v -0.9 0.6 -0.1
v -0.9 0.6 0
v -0.8 0.6 -0.1
v -0.8 0.6 0
v 0.8 0.6 -0.1
v 0.8 0.6 0
v 0.9 0.6 -0.1
v 0.9 0.6 0
v -1 0.7 -0.1
v -1 0.7 0
v -0.9 0.7 -0.1
v -0.9 0.7 0
v 0.9 0.7 -0.1
v 0.9 0.7 0
v 1 0.7 -0.1
v 1 0.7 0
v -1 0.9 -0.1
v -1 0.9 0
v -0.8 0.9 -0.1
v -0.8 0.9 0
v -0.8 1 -0.1
v -0.8 1 0
v -0.6 1 -0.1
v -0.6 1 0
v -0.6 1.1 -0.1
v -0.6 1.1 0
v -0.5 1.1 -0.1
v -0.5 1.1 0
v -0.5 1.2 -0.1
v -0.5 1.2 0
v -0.3 1.2 -0.1
v -0.3 1.2 0
v -0.3 1.4 -0.1
v -0.3 1.4 0
v -0.2 1.4 -0.1
v -0.2 1.4 0
v 0.9 1.4 -0.1
v 0.9 1.4 0
v 1 1.4 -0.1
v 1 1.4 0
v -0.2 1.5 -0.1
v -0.2 1.5 0
v 0.9 1.5 -0.1
v 0.9 1.5 0
v -0.6 0.3 -0.1
v 0.6 0.3 -0.1
v -0.7 0.4 -0.1
v -0.6 0.4 -0.1
v -0.3 0.4 -0.1
v -0.2 0.4 -0.1
v 0.6 0.4 -0.1
v 0.7 0.4 -0.1
v -0.8 0.5 -0.1
v -0.7 0.5 -0.1
v -0.6 0.5 -0.1
v -0.3 0.5 -0.1
v -0.2 0.5 -0.1
v -0.1 0.5 -0.1
v 0.6 0.5 -0.1
v 0.7 0.5 -0.1
v 0.8 0.5 -0.1
v -0.9 0.6 -0.1
v -0.8 0.6 -0.1
v -0.7 0.6 -0.1
v -0.3 0.6 -0.1
v -0.2 0.6 -0.1
v -0.1 0.6 -0.1
v 0.6 0.6 -0.1
v 0.7 0.6 -0.1
v 0.8 0.6 -0.1
v 0.9 0.6 -0.1
v -1 0.7 -0.1
v -0.9 0.7 -0.1
v -0.8 0.7 -0.1
v -0.6 0.7 -0.1
v -0.3 0.7 -0.1
v -0.2 0.7 -0.1
v -0.1 0.7 -0.1
v 0.6 0.7 -0.1
v 0.7 0.7 -0.1
v 0.8 0.7 -0.1
v 0.9 0.7 -0.1
v 1 0.7 -0.1
v -1 0.8 -0.1
v -0.8 0.8 -0.1
v -0.6 0.8 -0.1
v -0.5 0.8 -0.1
v -0.4 0.8 -0.1
v -0.2 0.8 -0.1
v -0.1 0.8 -0.1
v 0.1 0.8 -0.1
v 0.3 0.8 -0.1
v 0.6 0.8 -0.1
v 0.7 0.8 -0.1
v 0.8 0.8 -0.1
v 0.9 0.8 -0.1
v -1 0.9 -0.1
v -0.8 0.9 -0.1
v -0.6 0.9 -0.1
v -0.5 0.9 -0.1
v -0.4 0.9 -0.1
v -0.3 0.9 -0.1
v -0.2 0.9 -0.1
v 0.7 0.9 -0.1
v 0.8 0.9 -0.1
v 0.9 0.9 -0.1
v -0.8 1 -0.1
v -0.6 1 -0.1
v -0.5 1 -0.1
v -0.3 1 -0.1
v -0.1 1 -0.1
v 0.1 1 -0.1
v 0.3 1 -0.1
v 0.4 1 -0.1
v 0.7 1 -0.1
v -0.6 1.1 -0.1
v -0.5 1.1 -0.1
v -0.3 1.1 -0.1
v -0.1 1.1 -0.1
v 0.4 1.1 -0.1
v 0.7 1.1 -0.1
v -0.5 1.2 -0.1
v -0.3 1.2 -0.1
v -0.3 1.3 -0.1
v -0.2 1.3 -0.1
v 0.7 1.3 -0.1
v 0.8 1.3 -0.1
v 0.9 1.3 -0.1
v 1 1.3 -0.1
v -0.3 1.4 -0.1
v -0.2 1.4 -0.1
v 0.7 1.4 -0.1
v 0.8 1.4 -0.1
v 0.9 1.4 -0.1
v 1 1.4 -0.1
v -0.2 1.5 -0.1
v 0.9 1.5 -0.1
v -0.6 0.3 0
v 0.6 0.3 0
v -0.7 0.4 0
v -0.6 0.4 0
v -0.3 0.4 0
v -0.2 0.4 0
v 0.6 0.4 0
v 0.7 0.4 0
v -0.8 0.5 0
v -0.7 0.5 0
v -0.6 0.5 0
v -0.3 0.5 0
v -0.2 0.5 0
v -0.1 0.5 0
v 0.6 0.5 0
v 0.7 0.5 0
v 0.8 0.5 0
v -0.9 0.6 0
v -0.8 0.6 0
v -0.7 0.6 0
v -0.3 0.6 0
v -0.2 0.6 0
v -0.1 0.6 0
v 0.6 0.6 0
v 0.7 0.6 0
v 0.8 0.6 0
v 0.9 0.6 0
v -1 0.7 0
v -0.9 0.7 0
v -0.8 0.7 0
v -0.6 0.7 0
v -0.3 0.7 0
v -0.2 0.7 0
v -0.1 0.7 0
v 0.6 0.7 0
v 0.7 0.7 0
v 0.8 0.7 0
v 0.9 0.7 0
v 1 0.7 0
v -1 0.8 0
v -0.8 0.8 0
v -0.6 0.8 0
v -0.5 0.8 0
v -0.4 0.8 0
v -0.2 0.8 0
v -0.1 0.8 0
v 0.1 0.8 0
v 0.3 0.8 0
v 0.6 0.8 0
v 0.7 0.8 0
v 0.8 0.8 0
v 0.9 0.8 0
v -1 0.9 0
v -0.8 0.9 0
v -0.6 0.9 0
v -0.5 0.9 0
v -0.4 0.9 0
v -0.3 0.9 0
v -0.2 0.9 0
v 0.7 0.9 0
v 0.8 0.9 0
v 0.9 0.9 0
v -0.8 1 0
v -0.6 1 0
v -0.5 1 0
v -0.3 1 0
v -0.1 1 0
v 0.1 1 0
v 0.3 1 0
v 0.4 1 0
v 0.7 1 0
v -0.6 1.1 0
v -0.5 1.1 0
v -0.3 1.1 0
v -0.1 1.1 0
v 0.4 1.1 0
v 0.7 1.1 0
v -0.5 1.2 0
v -0.3 1.2 0
v -0.3 1.3 0
v -0.2 1.3 0
v 0.7 1.3 0
v 0.8 1.3 0
v 0.9 1.3 0
v 1 1.3 0
v -0.3 1.4 0
v -0.2 1.4 0
v 0.7 1.4 0
v 0.8 1.4 0
v 0.9 1.4 0
v 1 1.4 0
v -0.2 1.5 0
v 0.9 1.5 0

# faces
f 4/2/1 2/2/1 1/2/1
f 5/4/1 3/4/1 2/4/1
f 5/2/1 2/2/1 4/2/1
f 6/4/1 3/4/1 5/4/1
f 9/3/1 8/3/1 7/3/1
f 10/3/1 8/3/1 9/3/1
f 15/3/1 12/3/1 11/3/1
f 16/3/1 12/3/1 15/3/1
f 17/4/1 14/4/1 13/4/1
f 18/4/1 14/4/1 17/4/1
f 21/3/1 20/3/1 19/3/1
f 22/3/1 20/3/1 21/3/1
f 27/3/1 24/3/1 23/3/1
f 28/3/1 24/3/1 27/3/1
f 29/4/1 26/4/1 25/4/1
f 30/4/1 26/4/1 29/4/1
f 33/4/1 32/4/1 31/4/1
f 34/4/1 32/4/1 33/4/1
f 38/1/1 36/1/1 35/1/1
f 39/4/1 37/4/1 36/4/1
f 39/1/1 36/1/1 38/1/1
f 40/4/1 37/4/1 39/4/1
f 43/4/1 42/4/1 41/4/1
f 44/4/1 42/4/1 43/4/1
f 45/3/2 46/3/2 47/3/2
f 47/3/2 46/3/2 48/3/2
f 49/3/2 50/3/2 51/3/2
f 51/3/2 50/3/2 52/3/2
f 53/3/2 54/3/2 55/3/2
f 55/3/2 54/3/2 56/3/2
f 57/3/2 58/3/2 61/3/2
f 61/3/2 58/3/2 62/3/2
f 59/4/2 60/4/2 63/4/2
f 63/4/2 60/4/2 64/4/2
f 65/2/2 66/2/2 68/2/2
f 66/4/2 67/4/2 69/4/2
f 68/2/2 66/2/2 69/2/2
f 69/4/2 67/4/2 70/4/2
f 73/3/3 72/3/3 71/3/3
f 74/3/3 72/3/3 73/3/3
f 77/3/3 76/3/3 75/3/3
f 78/3/3 76/3/3 77/3/3
f 81/3/3 80/3/3 79/3/3
f 82/3/3 80/3/3 81/3/3
f 85/3/3 84/3/3 83/3/3
f 86/3/3 84/3/3 85/3/3
f 89/3/3 88/3/3 87/3/3
f 90/3/3 88/3/3 89/3/3
f 93/3/3 92/3/3 91/3/3
f 94/3/3 92/3/3 93/3/3
f 97/3/3 96/3/3 95/3/3
f 98/3/3 96/3/3 97/3/3
f 101/2/3 100/2/3 99/2/3
f 102/2/3 100/2/3 101/2/3
f 105/2/3 104/2/3 103/2/3
f 106/2/3 104/2/3 105/2/3
f 107/4/4 108/4/4 109/4/4
f 109/4/4 108/4/4 110/4/4
f 111/4/4 112/4/4 113/4/4
f 113/4/4 112/4/4 114/4/4
f 115/4/4 116/4/4 117/4/4
f 117/4/4 116/4/4 118/4/4
f 119/4/4 120/4/4 121/4/4
f 121/4/4 120/4/4 122/4/4
f 123/4/4 124/4/4 125/4/4
f 125/4/4 124/4/4 126/4/4
f 127/4/4 128/4/4 129/4/4
f 129/4/4 128/4/4 130/4/4
f 131/4/4 132/4/4 133/4/4
f 133/4/4 132/4/4 134/4/4
f 138/3/5 136/3/5 135/3/5
f 139/3/5 136/3/5 138/3/5
f 140/3/5 136/3/5 139/3/5
f 141/3/5 136/3/5 140/3/5
f 144/3/5 138/3/5 137/3/5
f 145/1/5 139/1/5 138/1/5
f 145/3/5 138/3/5 144/3/5
f 146/2/5 140/2/5 139/2/5
f 146/1/5 139/1/5 145/1/5
f 147/1/5 141/1/5 140/1/5
f 147/2/5 140/2/5 146/2/5
f 148/1/5 141/1/5 147/1/5
f 149/3/5 142/3/5 141/3/5
f 149/1/5 141/1/5 148/1/5
f 150/3/5 142/3/5 149/3/5
f 153/3/5 144/3/5 143/3/5
f 154/1/5 145/1/5 144/1/5
f 154/1/5 146/1/5 145/1/5
f 154/3/5 144/3/5 153/3/5
f 154/1/5 147/1/5 146/1/5
f 155/1/5 147/1/5 154/1/5
f 156/2/5 148/2/5 147/2/5
f 156/1/5 147/1/5 155/1/5
f 157/1/5 149/1/5 148/1/5
f 157/2/5 148/2/5 156/2/5
f 158/2/5 150/2/5 149/2/5
f 158/1/5 149/1/5 157/1/5
f 159/3/5 151/3/5 150/3/5
f 159/2/5 150/2/5 158/2/5
f 160/3/5 151/3/5 159/3/5
f 163/3/5 153/3/5 152/3/5
f 164/1/5 155/1/5 154/1/5
f 164/1/5 154/1/5 153/1/5
f 164/3/5 153/3/5 163/3/5
f 165/1/5 155/1/5 164/1/5
f 166/2/5 156/2/5 155/2/5
f 166/1/5 155/1/5 165/1/5
f 167/1/5 158/1/5 157/1/5
f 167/2/5 156/2/5 166/2/5
f 167/1/5 157/1/5 156/1/5
f 167/1/5 159/1/5 158/1/5
f 168/1/5 159/1/5 167/1/5
f 169/1/5 159/1/5 168/1/5
f 170/2/5 160/2/5 159/2/5
f 170/1/5 159/1/5 169/1/5
f 171/3/5 161/3/5 160/3/5
f 171/2/5 160/2/5 170/2/5
f 172/3/5 161/3/5 171/3/5
f 174/2/5 163/2/5 162/2/5
f 174/2/5 164/2/5 163/2/5
f 175/3/5 165/3/5 164/3/5
f 175/2/5 164/2/5 174/2/5
f 176/1/5 166/1/5 165/1/5
f 176/3/5 165/3/5 175/3/5
f 176/1/5 167/1/5 166/1/5
f 177/1/5 167/1/5 176/1/5
f 178/1/5 167/1/5 177/1/5
f 179/2/5 168/2/5 167/2/5
f 179/1/5 167/1/5 178/1/5
f 180/1/5 169/1/5 168/1/5
f 180/2/5 168/2/5 179/2/5
f 181/1/5 169/1/5 180/1/5
f 182/1/5 169/1/5 181/1/5
f 183/2/5 170/2/5 169/2/5
f 183/1/5 169/1/5 182/1/5
f 184/1/5 171/1/5 170/1/5
f 184/2/5 170/2/5 183/2/5
f 185/3/5 172/3/5 171/3/5
f 185/1/5 171/1/5 184/1/5
f 186/2/5 173/2/5 172/2/5
f 186/3/5 172/3/5 185/3/5
f 187/4/5 175/4/5 174/4/5
f 188/2/5 176/2/5 175/2/5
f 188/4/5 175/4/5 187/4/5
f 189/3/5 177/3/5 176/3/5
f 189/2/5 176/2/5 188/2/5
f 190/1/5 178/1/5 177/1/5
f 190/3/5 177/3/5 189/3/5
f 191/2/5 179/2/5 178/2/5
f 191/1/5 178/1/5 190/1/5
f 192/2/5 179/2/5 191/2/5
f 193/1/5 180/1/5 179/1/5
f 193/2/5 179/2/5 192/2/5
f 193/1/5 181/1/5 180/1/5
f 194/2/5 185/2/5 184/2/5
f 194/1/5 184/1/5 183/1/5
f 194/1/5 183/1/5 182/1/5
f 194/2/5 186/2/5 185/2/5
f 195/2/5 186/2/5 194/2/5
f 196/2/5 173/2/5 186/2/5
f 196/2/5 186/2/5 195/2/5
f 197/4/5 189/4/5 188/4/5
f 198/2/5 190/2/5 189/2/5
f 198/4/5 189/4/5 197/4/5
f 199/3/5 191/3/5 190/3/5
f 199/2/5 190/2/5 198/2/5
f 199/3/5 192/3/5 191/3/5
f 200/1/5 193/1/5 192/1/5
f 200/3/5 192/3/5 199/3/5
f 201/1/5 181/1/5 193/1/5
f 201/1/5 193/1/5 200/1/5
f 202/4/5 182/4/5 181/4/5
f 202/1/5 181/1/5 201/1/5
f 203/1/5 195/1/5 194/1/5
f 203/4/5 182/4/5 202/4/5
f 203/1/5 194/1/5 182/1/5
f 204/1/5 195/1/5 203/1/5
f 205/1/5 195/1/5 204/1/5
f 206/4/5 199/4/5 198/4/5
f 207/2/5 200/2/5 199/2/5
f 207/4/5 199/4/5 206/4/5
f 208/4/5 201/4/5 200/4/5
f 208/2/5 200/2/5 207/2/5
f 209/1/5 202/1/5 201/1/5
f 209/4/5 201/4/5 208/4/5
f 209/1/5 203/1/5 202/1/5
f 209/1/5 204/1/5 203/1/5
f 210/4/5 205/4/5 204/4/5
f 210/1/5 204/1/5 209/1/5
f 211/1/5 195/1/5 205/1/5
f 211/4/5 205/4/5 210/4/5
f 212/4/5 208/4/5 207/4/5
f 213/1/5 211/1/5 210/1/5
f 213/4/5 208/4/5 212/4/5
f 213/1/5 210/1/5 209/1/5
f 213/1/5 209/1/5 208/1/5
f 214/1/5 211/1/5 213/1/5
f 215/1/5 211/1/5 214/1/5
f 216/1/5 195/1/5 211/1/5
f 216/1/5 211/1/5 215/1/5
f 217/3/5 196/3/5 195/3/5
f 217/1/5 195/1/5 216/1/5
f 218/2/5 173/2/5 196/2/5
f 218/3/5 196/3/5 217/3/5
f 219/2/5 173/2/5 218/2/5
f 220/4/5 215/4/5 214/4/5
f 221/1/5 216/1/5 215/1/5
f 221/4/5 215/4/5 220/4/5
f 222/3/5 217/3/5 216/3/5
f 222/1/5 216/1/5 221/1/5
f 223/2/5 218/2/5 217/2/5
f 223/3/5 217/3/5 222/3/5
f 224/4/5 219/4/5 218/4/5
f 224/2/5 218/2/5 223/2/5
f 225/4/5 219/4/5 224/4/5
f 226/4/5 222/4/5 221/4/5
f 226/4/5 224/4/5 223/4/5
f 226/4/5 223/4/5 222/4/5
f 227/4/5 224/4/5 226/4/5
f 228/3/6 229/3/6 231/3/6
f 231/3/6 229/3/6 232/3/6
f 232/3/6 229/3/6 233/3/6
f 233/3/6 229/3/6 234/3/6
f 230/3/6 231/3/6 237/3/6
f 231/1/6 232/1/6 238/1/6
f 237/3/6 231/3/6 238/3/6
f 232/2/6 233/2/6 239/2/6
f 238/1/6 232/1/6 239/1/6
f 233/1/6 234/1/6 240/1/6
f 239/2/6 233/2/6 240/2/6
f 240/1/6 234/1/6 241/1/6
f 234/3/6 235/3/6 242/3/6
f 241/1/6 234/1/6 242/1/6
f 242/3/6 235/3/6 243/3/6
f 236/3/6 237/3/6 246/3/6
f 237/1/6 238/1/6 247/1/6
f 238/1/6 239/1/6 247/1/6
f 246/3/6 237/3/6 247/3/6
f 239/1/6 240/1/6 247/1/6
f 247/1/6 240/1/6 248/1/6
f 240/2/6 241/2/6 249/2/6
f 248/1/6 240/1/6 249/1/6
f 241/1/6 242/1/6 250/1/6
f 249/2/6 241/2/6 250/2/6
f 242/2/6 243/2/6 251/2/6
f 250/1/6 242/1/6 251/1/6
f 243/3/6 244/3/6 252/3/6
f 251/2/6 243/2/6 252/2/6
f 252/3/6 244/3/6 253/3/6
f 245/3/6 246/3/6 256/3/6
f 247/1/6 248/1/6 257/1/6
f 246/1/6 247/1/6 257/1/6
f 256/3/6 246/3/6 257/3/6
f 257/1/6 248/1/6 258/1/6
f 248/2/6 249/2/6 259/2/6
f 258/1/6 248/1/6 259/1/6
f 250/1/6 251/1/6 260/1/6
f 259/2/6 249/2/6 260/2/6
f 249/1/6 250/1/6 260/1/6
f 251/1/6 252/1/6 260/1/6
f 260/1/6 252/1/6 261/1/6
f 261/1/6 252/1/6 262/1/6
f 252/2/6 253/2/6 263/2/6
f 262/1/6 252/1/6 263/1/6
f 253/3/6 254/3/6 264/3/6
f 263/2/6 253/2/6 264/2/6
f 264/3/6 254/3/6 265/3/6
f 255/2/6 256/2/6 267/2/6
f 256/2/6 257/2/6 267/2/6
f 257/3/6 258/3/6 268/3/6
f 267/2/6 257/2/6 268/2/6
f 258/1/6 259/1/6 269/1/6
f 268/3/6 258/3/6 269/3/6
f 259/1/6 260/1/6 269/1/6
f 269/1/6 260/1/6 270/1/6
f 270/1/6 260/1/6 271/1/6
f 260/2/6 261/2/6 272/2/6
f 271/1/6 260/1/6 272/1/6
f 261/1/6 262/1/6 273/1/6
f 272/2/6 261/2/6 273/2/6
f 273/1/6 262/1/6 274/1/6
f 274/1/6 262/1/6 275/1/6
f 262/2/6 263/2/6 276/2/6
f 275/1/6 262/1/6 276/1/6
f 263/1/6 264/1/6 277/1/6
f 276/2/6 263/2/6 277/2/6
f 264/3/6 265/3/6 278/3/6
f 277/1/6 264/1/6 278/1/6
f 265/2/6 266/2/6 279/2/6
f 278/3/6 265/3/6 279/3/6
f 267/4/6 268/4/6 280/4/6
f 268/2/6 269/2/6 281/2/6
f 280/4/6 268/4/6 281/4/6
f 269/3/6 270/3/6 282/3/6
f 281/2/6 269/2/6 282/2/6
f 270/1/6 271/1/6 283/1/6
f 282/3/6 270/3/6 283/3/6
f 271/2/6 272/2/6 284/2/6
f 283/1/6 271/1/6 284/1/6
f 284/2/6 272/2/6 285/2/6
f 272/1/6 273/1/6 286/1/6
f 285/2/6 272/2/6 286/2/6
f 273/1/6 274/1/6 286/1/6
f 277/2/6 278/2/6 287/2/6
f 276/1/6 277/1/6 287/1/6
f 275/1/6 276/1/6 287/1/6
f 278/2/6 279/2/6 287/2/6
f 287/2/6 279/2/6 288/2/6
f 279/2/6 266/2/6 289/2/6
f 288/2/6 279/2/6 289/2/6
f 281/4/6 282/4/6 290/4/6
f 282/2/6 283/2/6 291/2/6
f 290/4/6 282/4/6 291/4/6
f 283/3/6 284/3/6 292/3/6
f 291/2/6 283/2/6 292/2/6
f 284/3/6 285/3/6 292/3/6
f 285/1/6 286/1/6 293/1/6
f 292/3/6 285/3/6 293/3/6
f 286/1/6 274/1/6 294/1/6
f 293/1/6 286/1/6 294/1/6
f 274/4/6 275/4/6 295/4/6
f 294/1/6 274/1/6 295/1/6
f 287/1/6 288/1/6 296/1/6
f 295/4/6 275/4/6 296/4/6
f 275/1/6 287/1/6 296/1/6
f 296/1/6 288/1/6 297/1/6
f 297/1/6 288/1/6 298/1/6
f 291/4/6 292/4/6 299/4/6
f 292/2/6 293/2/6 300/2/6
f 299/4/6 292/4/6 300/4/6
f 293/4/6 294/4/6 301/4/6
f 300/2/6 293/2/6 301/2/6
f 294/1/6 295/1/6 302/1/6
f 301/4/6 294/4/6 302/4/6
f 295/1/6 296/1/6 302/1/6
f 296/1/6 297/1/6 302/1/6
f 297/4/6 298/4/6 303/4/6
f 302/1/6 297/1/6 303/1/6
f 298/1/6 288/1/6 304/1/6
f 303/4/6 298/4/6 304/4/6
f 300/4/6 301/4/6 305/4/6
f 303/1/6 304/1/6 306/1/6
f 305/4/6 301/4/6 306/4/6
f 302/1/6 303/1/6 306/1/6
f 301/1/6 302/1/6 306/1/6
f 306/1/6 304/1/6 307/1/6
f 307/1/6 304/1/6 308/1/6
f 304/1/6 288/1/6 309/1/6
f 308/1/6 304/1/6 309/1/6
f 288/3/6 289/3/6 310/3/6
f 309/1/6 288/1/6 310/1/6
f 289/2/6 266/2/6 311/2/6
f 310/3/6 289/3/6 311/3/6
f 311/2/6 266/2/6 312/2/6
f 307/4/6 308/4/6 313/4/6
f 308/1/6 309/1/6 314/1/6
f 313/4/6 308/4/6 314/4/6
f 309/3/6 310/3/6 315/3/6
f 314/1/6 309/1/6 315/1/6
f 310/2/6 311/2/6 316/2/6
f 315/3/6 310/3/6 316/3/6
f 311/4/6 312/4/6 317/4/6
f 316/2/6 311/2/6 317/2/6
f 317/4/6 312/4/6 318/4/6
f 314/4/6 315/4/6 319/4/6
f 316/4/6 317/4/6 319/4/6
f 315/4/6 316/4/6 319/4/6
f 319/4/6 317/4/6 320/4/6
