# MagicaVoxel @ Ephtracy

# group
o 

# material
mtllib Soul_1.mtl
usemtl palette

# normals
vn -1 0 0
vn 1 0 0
vn 0 -1 0
vn 0 1 0
vn 0 0 -1
vn 0 0 1

# texcoords
vt 0.00195312 0.5
vt 0.337891 0.5
vt 0.955078 0.5
vt 0.962891 0.5

# verts
v -1 0.6 -0.1
v -1 0.7 -0.1
v -1 0.6 0
v -1 0.7 0
v -0.9 0.5 -0.1
v -0.9 0.6 -0.1
v -0.9 0.7 -0.1
v -0.9 0.8 -0.1
v -0.9 0.5 0
v -0.9 0.6 0
v -0.9 0.7 0
v -0.9 0.8 0
v -0.8 0.4 -0.1
v -0.8 0.5 -0.1
v -0.8 0.8 -0.1
v -0.8 0.9 -0.1
v -0.8 0.4 0
v -0.8 0.5 0
v -0.8 0.8 0
v -0.8 0.9 0
v -0.7 0.9 -0.1
v -0.7 1.1 -0.1
v -0.7 0.9 0
v -0.7 1.1 0
v -0.6 0.3 -0.1
v -0.6 0.4 -0.1
v -0.6 1.1 -0.1
v -0.6 1.2 -0.1
v -0.6 0.3 0
v -0.6 0.4 0
v -0.6 1.1 0
v -0.6 1.2 0
v -0.5 1.2 -0.1
v -0.5 1.3 -0.1
v -0.5 1.2 0
v -0.5 1.3 0
v -0.4 0.2 -0.1
v -0.4 0.3 -0.1
v -0.4 0.2 0
v -0.4 0.3 0
v -0.3 1.3 -0.1
v -0.3 1.4 -0.1
v -0.3 1.3 0
v -0.3 1.4 0
v -0.1 1.4 -0.1
v -0.1 1.5 -0.1
v -0.1 1.4 0
v -0.1 1.5 0
v 0.4 0.2 -0.1
v 0.4 0.3 -0.1
v 0.4 1.4 -0.1
v 0.4 1.5 -0.1
v 0.4 0.2 0
v 0.4 0.3 0
v 0.4 1.4 0
v 0.4 1.5 0
v 0.5 0.3 -0.1
v 0.5 0.4 -0.1
v 0.5 0.3 0
v 0.5 0.4 0
v 0.6 1.3 -0.1
v 0.6 1.4 -0.1
v 0.6 1.3 0
v 0.6 1.4 0
v 0.7 0.4 -0.1
v 0.7 0.5 -0.1
v 0.7 0.4 0
v 0.7 0.5 0
v 0.8 0.5 -0.1
v 0.8 0.6 -0.1
v 0.8 1.2 -0.1
v 0.8 1.3 -0.1
v 0.8 0.5 0
v 0.8 0.6 0
v 0.8 1.2 0
v 0.8 1.3 0
v 0.9 0.6 -0.1
v 0.9 0.7 -0.1
v 0.9 1 -0.1
v 0.9 1.2 -0.1
v 0.9 0.6 0
v 0.9 0.7 0
v 0.9 1 0
v 0.9 1.2 0
v 1 0.7 -0.1
v 1 1 -0.1
v 1 0.7 0
v 1 1 0
v -0.4 0.2 -0.1
v -0.4 0.2 0
v 0.4 0.2 -0.1
v 0.4 0.2 0
v -0.6 0.3 -0.1
v -0.6 0.3 0
v -0.4 0.3 -0.1
v -0.4 0.3 0
v 0.4 0.3 -0.1
v 0.4 0.3 0
v 0.5 0.3 -0.1
v 0.5 0.3 0
v -0.8 0.4 -0.1
v -0.8 0.4 0
v -0.6 0.4 -0.1
v -0.6 0.4 0
v 0.5 0.4 -0.1
v 0.5 0.4 0
v 0.7 0.4 -0.1
v 0.7 0.4 0
v -0.9 0.5 -0.1
v -0.9 0.5 0
v -0.8 0.5 -0.1
v -0.8 0.5 0
v 0.7 0.5 -0.1
v 0.7 0.5 0
v 0.8 0.5 -0.1
v 0.8 0.5 0
v -1 0.6 -0.1
v -1 0.6 0
v -0.9 0.6 -0.1
v -0.9 0.6 0
v 0.8 0.6 -0.1
v 0.8 0.6 0
v 0.9 0.6 -0.1
v 0.9 0.6 0
v 0.9 0.7 -0.1
v 0.9 0.7 0
v 1 0.7 -0.1
v 1 0.7 0
v -1 0.7 -0.1
v -1 0.7 0
v -0.9 0.7 -0.1
v -0.9 0.7 0
v -0.9 0.8 -0.1
v -0.9 0.8 0
v -0.8 0.8 -0.1
v -0.8 0.8 0
v -0.8 0.9 -0.1
v -0.8 0.9 0
v -0.7 0.9 -0.1
v -0.7 0.9 0
v 0.9 1 -0.1
v 0.9 1 0
v 1 1 -0.1
v 1 1 0
v -0.7 1.1 -0.1
v -0.7 1.1 0
v -0.6 1.1 -0.1
v -0.6 1.1 0
v -0.6 1.2 -0.1
v -0.6 1.2 0
v -0.5 1.2 -0.1
v -0.5 1.2 0
v 0.8 1.2 -0.1
v 0.8 1.2 0
v 0.9 1.2 -0.1
v 0.9 1.2 0
v -0.5 1.3 -0.1
v -0.5 1.3 0
v -0.4 1.3 -0.1
v -0.4 1.3 0
v -0.3 1.3 -0.1
v -0.3 1.3 0
v 0.6 1.3 -0.1
v 0.6 1.3 0
v 0.7 1.3 -0.1
v 0.7 1.3 0
v 0.8 1.3 -0.1
v 0.8 1.3 0
v -0.3 1.4 -0.1
v -0.3 1.4 0
v -0.1 1.4 -0.1
v -0.1 1.4 0
v 0.4 1.4 -0.1
v 0.4 1.4 0
v 0.6 1.4 -0.1
v 0.6 1.4 0
v -0.1 1.5 -0.1
v -0.1 1.5 0
v 0.4 1.5 -0.1
v 0.4 1.5 0
v -0.4 0.2 -0.1
v 0.4 0.2 -0.1
v -0.6 0.3 -0.1
v -0.4 0.3 -0.1
v 0.4 0.3 -0.1
v 0.5 0.3 -0.1
v -0.8 0.4 -0.1
v -0.6 0.4 -0.1
v -0.4 0.4 -0.1
v 0.4 0.4 -0.1
v 0.5 0.4 -0.1
v 0.7 0.4 -0.1
v -0.9 0.5 -0.1
v -0.8 0.5 -0.1
v -0.6 0.5 -0.1
v 0.5 0.5 -0.1
v 0.7 0.5 -0.1
v 0.8 0.5 -0.1
v -1 0.6 -0.1
v -0.9 0.6 -0.1
v -0.8 0.6 -0.1
v 0.7 0.6 -0.1
v 0.8 0.6 -0.1
v 0.9 0.6 -0.1
v -1 0.7 -0.1
v -0.9 0.7 -0.1
v -0.7 0.7 -0.1
v -0.6 0.7 -0.1
v 0 0.7 -0.1
v 0.1 0.7 -0.1
v 0.8 0.7 -0.1
v 0.9 0.7 -0.1
v 1 0.7 -0.1
v -0.9 0.8 -0.1
v -0.8 0.8 -0.1
v 0.1 0.8 -0.1
v 0.2 0.8 -0.1
v 0.7 0.8 -0.1
v 0.8 0.8 -0.1
v -0.8 0.9 -0.1
v -0.7 0.9 -0.1
v -0.6 0.9 -0.1
v -0.5 0.9 -0.1
v -0.4 0.9 -0.1
v -0.2 0.9 -0.1
v 0 0.9 -0.1
v 0.2 0.9 -0.1
v 0.3 0.9 -0.1
v 0.5 0.9 -0.1
v 0.6 0.9 -0.1
v 0.8 0.9 -0.1
v 0.9 0.9 -0.1
v -0.6 1 -0.1
v -0.5 1 -0.1
v -0.4 1 -0.1
v -0.2 1 -0.1
v 0.3 1 -0.1
v 0.5 1 -0.1
v 0.6 1 -0.1
v 0.9 1 -0.1
v 1 1 -0.1
v -0.7 1.1 -0.1
v -0.6 1.1 -0.1
v -0.5 1.1 -0.1
v -0.4 1.1 -0.1
v -0.6 1.2 -0.1
v -0.5 1.2 -0.1
v -0.4 1.2 -0.1
v -0.2 1.2 -0.1
v 0.5 1.2 -0.1
v 0.7 1.2 -0.1
v 0.8 1.2 -0.1
v 0.9 1.2 -0.1
v -0.5 1.3 -0.1
v -0.4 1.3 -0.1
v -0.3 1.3 -0.1
v -0.2 1.3 -0.1
v -0.1 1.3 -0.1
v 0.4 1.3 -0.1
v 0.5 1.3 -0.1
v 0.6 1.3 -0.1
v 0.7 1.3 -0.1
v 0.8 1.3 -0.1
v -0.3 1.4 -0.1
v -0.1 1.4 -0.1
v 0.4 1.4 -0.1
v 0.6 1.4 -0.1
v -0.1 1.5 -0.1
v 0.4 1.5 -0.1
v -0.4 0.2 0
v 0.4 0.2 0
v -0.6 0.3 0
v -0.4 0.3 0
v 0.4 0.3 0
v 0.5 0.3 0
v -0.8 0.4 0
v -0.6 0.4 0
v -0.4 0.4 0
v 0.4 0.4 0
v 0.5 0.4 0
v 0.7 0.4 0
v -0.9 0.5 0
v -0.8 0.5 0
v -0.6 0.5 0
v 0.5 0.5 0
v 0.7 0.5 0
v 0.8 0.5 0
v -1 0.6 0
v -0.9 0.6 0
v -0.8 0.6 0
v 0.7 0.6 0
v 0.8 0.6 0
v 0.9 0.6 0
v -1 0.7 0
v -0.9 0.7 0
v -0.7 0.7 0
v -0.6 0.7 0
v 0 0.7 0
v 0.1 0.7 0
v 0.8 0.7 0
v 0.9 0.7 0
v 1 0.7 0
v -0.9 0.8 0
v -0.8 0.8 0
v 0.1 0.8 0
v 0.2 0.8 0
v 0.7 0.8 0
v 0.8 0.8 0
v -0.8 0.9 0
v -0.7 0.9 0
v -0.6 0.9 0
v -0.5 0.9 0
v -0.4 0.9 0
v -0.2 0.9 0
v 0 0.9 0
v 0.2 0.9 0
v 0.3 0.9 0
v 0.5 0.9 0
v 0.6 0.9 0
v 0.8 0.9 0
v 0.9 0.9 0
v -0.6 1 0
v -0.5 1 0
v -0.4 1 0
v -0.2 1 0
v 0.3 1 0
v 0.5 1 0
v 0.6 1 0
v 0.9 1 0
v 1 1 0
v -0.7 1.1 0
v -0.6 1.1 0
v -0.5 1.1 0
v -0.4 1.1 0
v -0.6 1.2 0
v -0.5 1.2 0
v -0.4 1.2 0
v -0.2 1.2 0
v 0.5 1.2 0
v 0.7 1.2 0
v 0.8 1.2 0
v 0.9 1.2 0
v -0.5 1.3 0
v -0.4 1.3 0
v -0.3 1.3 0
v -0.2 1.3 0
v -0.1 1.3 0
v 0.4 1.3 0
v 0.5 1.3 0
v 0.6 1.3 0
v 0.7 1.3 0
v 0.8 1.3 0
v -0.3 1.4 0
v -0.1 1.4 0
v 0.4 1.4 0
v 0.6 1.4 0
v -0.1 1.5 0
v 0.4 1.5 0

# faces
f 3/2/1 2/2/1 1/2/1
f 4/2/1 2/2/1 3/2/1
f 9/4/1 6/4/1 5/4/1
f 10/4/1 6/4/1 9/4/1
f 11/2/1 8/2/1 7/2/1
f 12/2/1 8/2/1 11/2/1
f 17/4/1 14/4/1 13/4/1
f 18/4/1 14/4/1 17/4/1
f 19/2/1 16/2/1 15/2/1
f 20/2/1 16/2/1 19/2/1
f 23/2/1 22/2/1 21/2/1
f 24/2/1 22/2/1 23/2/1
f 29/4/1 26/4/1 25/4/1
f 30/4/1 26/4/1 29/4/1
f 31/2/1 28/2/1 27/2/1
f 32/2/1 28/2/1 31/2/1
f 35/2/1 34/2/1 33/2/1
f 36/2/1 34/2/1 35/2/1
f 39/4/1 38/4/1 37/4/1
f 40/4/1 38/4/1 39/4/1
f 43/2/1 42/2/1 41/2/1
f 44/2/1 42/2/1 43/2/1
f 47/2/1 46/2/1 45/2/1
f 48/2/1 46/2/1 47/2/1
f 49/4/2 50/4/2 53/4/2
f 53/4/2 50/4/2 54/4/2
f 51/2/2 52/2/2 55/2/2
f 55/2/2 52/2/2 56/2/2
f 57/4/2 58/4/2 59/4/2
f 59/4/2 58/4/2 60/4/2
f 61/2/2 62/2/2 63/2/2
f 63/2/2 62/2/2 64/2/2
f 65/4/2 66/4/2 67/4/2
f 67/4/2 66/4/2 68/4/2
f 69/4/2 70/4/2 73/4/2
f 73/4/2 70/4/2 74/4/2
f 71/2/2 72/2/2 75/2/2
f 75/2/2 72/2/2 76/2/2
f 77/2/2 78/2/2 81/2/2
f 81/2/2 78/2/2 82/2/2
f 79/2/2 80/2/2 83/2/2
f 83/2/2 80/2/2 84/2/2
f 85/2/2 86/2/2 87/2/2
f 87/2/2 86/2/2 88/2/2
f 91/4/3 90/4/3 89/4/3
f 92/4/3 90/4/3 91/4/3
f 95/4/3 94/4/3 93/4/3
f 96/4/3 94/4/3 95/4/3
f 99/4/3 98/4/3 97/4/3
f 100/4/3 98/4/3 99/4/3
f 103/4/3 102/4/3 101/4/3
f 104/4/3 102/4/3 103/4/3
f 107/4/3 106/4/3 105/4/3
f 108/4/3 106/4/3 107/4/3
f 111/4/3 110/4/3 109/4/3
f 112/4/3 110/4/3 111/4/3
f 115/4/3 114/4/3 113/4/3
f 116/4/3 114/4/3 115/4/3
f 119/2/3 118/2/3 117/2/3
f 120/2/3 118/2/3 119/2/3
f 123/2/3 122/2/3 121/2/3
f 124/2/3 122/2/3 123/2/3
f 127/2/3 126/2/3 125/2/3
f 128/2/3 126/2/3 127/2/3
f 129/2/4 130/2/4 131/2/4
f 131/2/4 130/2/4 132/2/4
f 133/2/4 134/2/4 135/2/4
f 135/2/4 134/2/4 136/2/4
f 137/2/4 138/2/4 139/2/4
f 139/2/4 138/2/4 140/2/4
f 141/2/4 142/2/4 143/2/4
f 143/2/4 142/2/4 144/2/4
f 145/2/4 146/2/4 147/2/4
f 147/2/4 146/2/4 148/2/4
f 149/2/4 150/2/4 151/2/4
f 151/2/4 150/2/4 152/2/4
f 153/2/4 154/2/4 155/2/4
f 155/2/4 154/2/4 156/2/4
f 157/2/4 158/2/4 159/2/4
f 159/2/4 158/2/4 160/2/4
f 159/4/4 160/4/4 161/4/4
f 161/4/4 160/4/4 162/4/4
f 163/4/4 164/4/4 165/4/4
f 165/4/4 164/4/4 166/4/4
f 165/2/4 166/2/4 167/2/4
f 167/2/4 166/2/4 168/2/4
f 169/2/4 170/2/4 171/2/4
f 171/2/4 170/2/4 172/2/4
f 173/2/4 174/2/4 175/2/4
f 175/2/4 174/2/4 176/2/4
f 177/2/4 178/2/4 179/2/4
f 179/2/4 178/2/4 180/2/4
f 184/4/5 182/4/5 181/4/5
f 185/4/5 182/4/5 184/4/5
f 188/4/5 184/4/5 183/4/5
f 189/1/5 185/1/5 184/1/5
f 189/4/5 184/4/5 188/4/5
f 190/4/5 186/4/5 185/4/5
f 190/1/5 185/1/5 189/1/5
f 191/4/5 186/4/5 190/4/5
f 194/4/5 188/4/5 187/4/5
f 195/1/5 189/1/5 188/1/5
f 195/1/5 190/1/5 189/1/5
f 195/4/5 188/4/5 194/4/5
f 195/1/5 191/1/5 190/1/5
f 196/4/5 192/4/5 191/4/5
f 196/1/5 191/1/5 195/1/5
f 197/4/5 192/4/5 196/4/5
f 200/4/5 194/4/5 193/4/5
f 201/1/5 195/1/5 194/1/5
f 201/1/5 196/1/5 195/1/5
f 201/4/5 194/4/5 200/4/5
f 201/1/5 197/1/5 196/1/5
f 202/4/5 198/4/5 197/4/5
f 202/1/5 197/1/5 201/1/5
f 203/4/5 198/4/5 202/4/5
f 205/2/5 200/2/5 199/2/5
f 206/1/5 201/1/5 200/1/5
f 206/2/5 200/2/5 205/2/5
f 206/1/5 202/1/5 201/1/5
f 206/1/5 203/1/5 202/1/5
f 207/1/5 203/1/5 206/1/5
f 208/1/5 203/1/5 207/1/5
f 209/1/5 203/1/5 208/1/5
f 210/1/5 203/1/5 209/1/5
f 211/2/5 204/2/5 203/2/5
f 211/1/5 203/1/5 210/1/5
f 212/2/5 204/2/5 211/2/5
f 214/2/5 207/2/5 206/2/5
f 215/2/5 207/2/5 214/2/5
f 216/3/5 210/3/5 209/3/5
f 216/1/5 211/1/5 210/1/5
f 217/1/5 211/1/5 216/1/5
f 218/1/5 211/1/5 217/1/5
f 219/4/5 212/4/5 211/4/5
f 219/1/5 211/1/5 218/1/5
f 220/2/5 207/2/5 215/2/5
f 221/4/5 208/4/5 207/4/5
f 221/2/5 207/2/5 220/2/5
f 222/1/5 209/1/5 208/1/5
f 222/4/5 208/4/5 221/4/5
f 223/1/5 209/1/5 222/1/5
f 224/1/5 209/1/5 223/1/5
f 225/1/5 209/1/5 224/1/5
f 226/3/5 216/3/5 209/3/5
f 226/1/5 209/1/5 225/1/5
f 226/3/5 217/3/5 216/3/5
f 227/1/5 218/1/5 217/1/5
f 227/3/5 217/3/5 226/3/5
f 228/1/5 218/1/5 227/1/5
f 229/1/5 218/1/5 228/1/5
f 230/1/5 218/1/5 229/1/5
f 231/4/5 212/4/5 219/4/5
f 231/4/5 219/4/5 218/4/5
f 232/2/5 213/2/5 212/2/5
f 232/4/5 212/4/5 231/4/5
f 233/2/5 222/2/5 221/2/5
f 233/1/5 223/1/5 222/1/5
f 234/2/5 224/2/5 223/2/5
f 234/1/5 223/1/5 233/1/5
f 235/3/5 225/3/5 224/3/5
f 235/2/5 224/2/5 234/2/5
f 236/1/5 226/1/5 225/1/5
f 236/3/5 225/3/5 235/3/5
f 236/1/5 227/1/5 226/1/5
f 236/1/5 228/1/5 227/1/5
f 237/3/5 229/3/5 228/3/5
f 237/1/5 228/1/5 236/1/5
f 238/2/5 230/2/5 229/2/5
f 238/3/5 229/3/5 237/3/5
f 239/1/5 218/1/5 230/1/5
f 239/2/5 230/2/5 238/2/5
f 240/2/5 213/2/5 232/2/5
f 240/2/5 232/2/5 231/2/5
f 241/2/5 213/2/5 240/2/5
f 242/2/5 233/2/5 221/2/5
f 243/4/5 234/4/5 233/4/5
f 243/2/5 233/2/5 242/2/5
f 244/1/5 238/1/5 237/1/5
f 244/4/5 234/4/5 243/4/5
f 244/1/5 235/1/5 234/1/5
f 244/1/5 237/1/5 236/1/5
f 244/1/5 236/1/5 235/1/5
f 244/1/5 239/1/5 238/1/5
f 245/1/5 239/1/5 244/1/5
f 246/2/5 244/2/5 243/2/5
f 247/4/5 245/4/5 244/4/5
f 247/2/5 244/2/5 246/2/5
f 248/1/5 239/1/5 245/1/5
f 248/4/5 245/4/5 247/4/5
f 249/1/5 239/1/5 248/1/5
f 250/1/5 239/1/5 249/1/5
f 251/4/5 231/4/5 218/4/5
f 251/1/5 239/1/5 250/1/5
f 251/1/5 218/1/5 239/1/5
f 252/2/5 240/2/5 231/2/5
f 252/4/5 231/4/5 251/4/5
f 253/2/5 240/2/5 252/2/5
f 254/2/5 248/2/5 247/2/5
f 255/4/5 249/4/5 248/4/5
f 255/2/5 248/2/5 254/2/5
f 256/4/5 249/4/5 255/4/5
f 257/1/5 250/1/5 249/1/5
f 257/4/5 249/4/5 256/4/5
f 258/1/5 250/1/5 257/1/5
f 259/1/5 250/1/5 258/1/5
f 260/4/5 251/4/5 250/4/5
f 260/1/5 250/1/5 259/1/5
f 261/4/5 251/4/5 260/4/5
f 262/2/5 252/2/5 251/2/5
f 262/4/5 251/4/5 261/4/5
f 263/2/5 252/2/5 262/2/5
f 264/2/5 257/2/5 256/2/5
f 264/2/5 258/2/5 257/2/5
f 265/4/5 259/4/5 258/4/5
f 265/2/5 258/2/5 264/2/5
f 266/2/5 261/2/5 260/2/5
f 266/4/5 259/4/5 265/4/5
f 266/2/5 260/2/5 259/2/5
f 267/2/5 261/2/5 266/2/5
f 268/2/5 266/2/5 265/2/5
f 269/2/5 266/2/5 268/2/5
f 270/4/6 271/4/6 273/4/6
f 273/4/6 271/4/6 274/4/6
f 272/4/6 273/4/6 277/4/6
f 273/1/6 274/1/6 278/1/6
f 277/4/6 273/4/6 278/4/6
f 274/4/6 275/4/6 279/4/6
f 278/1/6 274/1/6 279/1/6
f 279/4/6 275/4/6 280/4/6
f 276/4/6 277/4/6 283/4/6
f 277/1/6 278/1/6 284/1/6
f 278/1/6 279/1/6 284/1/6
f 283/4/6 277/4/6 284/4/6
f 279/1/6 280/1/6 284/1/6
f 280/4/6 281/4/6 285/4/6
f 284/1/6 280/1/6 285/1/6
f 285/4/6 281/4/6 286/4/6
f 282/4/6 283/4/6 289/4/6
f 283/1/6 284/1/6 290/1/6
f 284/1/6 285/1/6 290/1/6
f 289/4/6 283/4/6 290/4/6
f 285/1/6 286/1/6 290/1/6
f 286/4/6 287/4/6 291/4/6
f 290/1/6 286/1/6 291/1/6
f 291/4/6 287/4/6 292/4/6
f 288/2/6 289/2/6 294/2/6
f 289/1/6 290/1/6 295/1/6
f 294/2/6 289/2/6 295/2/6
f 290/1/6 291/1/6 295/1/6
f 291/1/6 292/1/6 295/1/6
f 295/1/6 292/1/6 296/1/6
f 296/1/6 292/1/6 297/1/6
f 297/1/6 292/1/6 298/1/6
f 298/1/6 292/1/6 299/1/6
f 292/2/6 293/2/6 300/2/6
f 299/1/6 292/1/6 300/1/6
f 300/2/6 293/2/6 301/2/6
f 295/2/6 296/2/6 303/2/6
f 303/2/6 296/2/6 304/2/6
f 298/3/6 299/3/6 305/3/6
f 299/1/6 300/1/6 305/1/6
f 305/1/6 300/1/6 306/1/6
f 306/1/6 300/1/6 307/1/6
f 300/4/6 301/4/6 308/4/6
f 307/1/6 300/1/6 308/1/6
f 304/2/6 296/2/6 309/2/6
f 296/4/6 297/4/6 310/4/6
f 309/2/6 296/2/6 310/2/6
f 297/1/6 298/1/6 311/1/6
f 310/4/6 297/4/6 311/4/6
f 311/1/6 298/1/6 312/1/6
f 312/1/6 298/1/6 313/1/6
f 313/1/6 298/1/6 314/1/6
f 298/3/6 305/3/6 315/3/6
f 314/1/6 298/1/6 315/1/6
f 305/3/6 306/3/6 315/3/6
f 306/1/6 307/1/6 316/1/6
f 315/3/6 306/3/6 316/3/6
f 316/1/6 307/1/6 317/1/6
f 317/1/6 307/1/6 318/1/6
f 318/1/6 307/1/6 319/1/6
f 308/4/6 301/4/6 320/4/6
f 307/4/6 308/4/6 320/4/6
f 301/2/6 302/2/6 321/2/6
f 320/4/6 301/4/6 321/4/6
f 310/2/6 311/2/6 322/2/6
f 311/1/6 312/1/6 322/1/6
f 312/2/6 313/2/6 323/2/6
f 322/1/6 312/1/6 323/1/6
f 313/3/6 314/3/6 324/3/6
f 323/2/6 313/2/6 324/2/6
f 314/1/6 315/1/6 325/1/6
f 324/3/6 314/3/6 325/3/6
f 315/1/6 316/1/6 325/1/6
f 316/1/6 317/1/6 325/1/6
f 317/3/6 318/3/6 326/3/6
f 325/1/6 317/1/6 326/1/6
f 318/2/6 319/2/6 327/2/6
f 326/3/6 318/3/6 327/3/6
f 319/1/6 307/1/6 328/1/6
f 327/2/6 319/2/6 328/2/6
f 321/2/6 302/2/6 329/2/6
f 320/2/6 321/2/6 329/2/6
f 329/2/6 302/2/6 330/2/6
f 310/2/6 322/2/6 331/2/6
f 322/4/6 323/4/6 332/4/6
f 331/2/6 322/2/6 332/2/6
f 326/1/6 327/1/6 333/1/6
f 332/4/6 323/4/6 333/4/6
f 323/1/6 324/1/6 333/1/6
f 325/1/6 326/1/6 333/1/6
f 324/1/6 325/1/6 333/1/6
f 327/1/6 328/1/6 333/1/6
f 333/1/6 328/1/6 334/1/6
f 332/2/6 333/2/6 335/2/6
f 333/4/6 334/4/6 336/4/6
f 335/2/6 333/2/6 336/2/6
f 334/1/6 328/1/6 337/1/6
f 336/4/6 334/4/6 337/4/6
f 337/1/6 328/1/6 338/1/6
f 338/1/6 328/1/6 339/1/6
f 307/4/6 320/4/6 340/4/6
f 339/1/6 328/1/6 340/1/6
f 328/1/6 307/1/6 340/1/6
f 320/2/6 329/2/6 341/2/6
f 340/4/6 320/4/6 341/4/6
f 341/2/6 329/2/6 342/2/6
f 336/2/6 337/2/6 343/2/6
f 337/4/6 338/4/6 344/4/6
f 343/2/6 337/2/6 344/2/6
f 344/4/6 338/4/6 345/4/6
f 338/1/6 339/1/6 346/1/6
f 345/4/6 338/4/6 346/4/6
f 346/1/6 339/1/6 347/1/6
f 347/1/6 339/1/6 348/1/6
f 339/4/6 340/4/6 349/4/6
f 348/1/6 339/1/6 349/1/6
f 349/4/6 340/4/6 350/4/6
f 340/2/6 341/2/6 351/2/6
f 350/4/6 340/4/6 351/4/6
f 351/2/6 341/2/6 352/2/6
f 345/2/6 346/2/6 353/2/6
f 346/2/6 347/2/6 353/2/6
f 347/4/6 348/4/6 354/4/6
f 353/2/6 347/2/6 354/2/6
f 349/2/6 350/2/6 355/2/6
f 354/4/6 348/4/6 355/4/6
f 348/2/6 349/2/6 355/2/6
f 355/2/6 350/2/6 356/2/6
f 354/2/6 355/2/6 357/2/6
f 357/2/6 355/2/6 358/2/6
